<?xml version="1.0" encoding="UTF-8" standalone="no"?>
<!DOCTYPE svg PUBLIC "-//W3C//DTD SVG 1.1//EN" "http://www.w3.org/Graphics/SVG/1.1/DTD/svg11.dtd">
<svg version="1.1" xmlns="http://www.w3.org/2000/svg" xmlns:xlink="http://www.w3.org/1999/xlink" preserveAspectRatio="xMidYMid meet" viewBox="-1.000000000000007 -1.0000000000000009 36.00000000000001 36.00000000000001" width="1024" height="1024"><defs><path d="M0 0L32 0L32 32L0 32L0 0Z" id="a3dSdUc79A"></path><path d="M31 0C31.55 0 32 0.45 32 1C32 7.2 32 24.8 32 31C32 31.55 31.55 32 31 32C24.8 32 7.2 32 1 32C0.45 32 0 31.55 0 31C0 24.8 0 7.2 0 1C0 0.45 0.45 0 1 0C7.2 0 24.8 0 31 0Z" id="c1Yv2KgJC3"></path><path d="M0 0L32 0L32 32L0 32L0 0Z" id="f31xupG3gQ"></path><path d="M28 25C28.55 25 29 25.45 29 26C29 26.2 29 25.8 29 26C29 26.55 28.55 27 28 27C23 27 9 27 4 27C3.45 27 3 26.55 3 26C3 25.8 3 26.2 3 26C3 25.45 3.45 25 4 25C9 25 23 25 28 25Z" id="a2EzIPNP2r"></path><path d="M9 25L12 25L12 27L9 27L9 25Z" id="b12a0zATC8"></path><path d="M10.11 25C10.6 25 11 25.4 11 25.89C11 26.11 11 25.89 11 26.11C11 26.6 10.6 27 10.11 27C8.69 27 5.31 27 3.89 27C3.4 27 3 26.6 3 26.11C3 25.89 3 26.11 3 25.89C3 25.4 3.4 25 3.89 25C5.31 25 8.69 25 10.11 25Z" id="a28HJotPLA"></path><path d="M9 26C9 27.1 8.1 28 7 28C5.9 28 5 27.1 5 26C5 24.9 5.9 24 7 24C8.1 24 9 24.9 9 26Z" id="bB7KI03E5"></path><path d="M23 15C23 18.86 19.86 22 16 22C12.14 22 9 18.86 9 15C9 11.14 12.14 8 16 8C19.86 8 23 11.14 23 15Z" id="a2MMrkxxu"></path><path d="M18 15C18 16.1 17.1 17 16 17C14.9 17 14 16.1 14 15C14 13.9 14.9 13 16 13C17.1 13 18 13.9 18 15Z" id="g1Wh2N5iG"></path><path d="M20 3L29 3L29 5L20 5L20 3Z" id="ddeIMGuJW"></path><path d="M19.5 10.5L20.5 11.5L18.5 13.5L17.5 12.5L19.5 10.5Z" id="eezorYJgq"></path><path d="M13.5 16.5L14.5 17.5L12.5 19.5L11.5 18.5L13.5 16.5Z" id="c1BUm9SFpj"></path></defs><g><g><use xlink:href="#a3dSdUc79A" opacity="1" fill="#000000" fill-opacity="0"></use></g><g><use xlink:href="#c1Yv2KgJC3" opacity="1" fill="#000000" fill-opacity="1"></use><g><use xlink:href="#c1Yv2KgJC3" opacity="1" fill-opacity="0" stroke="#59c468" stroke-width="0" stroke-opacity="1"></use></g></g><g><use xlink:href="#f31xupG3gQ" opacity="1" fill="#59aeff" fill-opacity="1"></use><g><use xlink:href="#f31xupG3gQ" opacity="1" fill-opacity="0" stroke="#6b1a56" stroke-width="0" stroke-opacity="1"></use></g></g><g><use xlink:href="#a2EzIPNP2r" opacity="1" fill="#dbdbdb" fill-opacity="1"></use><g><use xlink:href="#a2EzIPNP2r" opacity="1" fill-opacity="0" stroke="#76596e" stroke-width="0" stroke-opacity="1"></use></g></g><g><use xlink:href="#b12a0zATC8" opacity="1" fill="#ffffff" fill-opacity="1"></use><g><use xlink:href="#b12a0zATC8" opacity="1" fill-opacity="0" stroke="#42621e" stroke-width="0" stroke-opacity="1"></use></g></g><g><use xlink:href="#a28HJotPLA" opacity="1" fill="#ffffff" fill-opacity="1"></use><g><use xlink:href="#a28HJotPLA" opacity="1" fill-opacity="0" stroke="#b91508" stroke-width="0" stroke-opacity="1"></use></g></g><g><use xlink:href="#bB7KI03E5" opacity="1" fill="#ed0003" fill-opacity="1"></use><g><use xlink:href="#bB7KI03E5" opacity="1" fill-opacity="0" stroke="#44f827" stroke-width="0" stroke-opacity="1"></use></g></g><g><use xlink:href="#a2MMrkxxu" opacity="1" fill="#dbdbdb" fill-opacity="1"></use><g><use xlink:href="#a2MMrkxxu" opacity="1" fill-opacity="0" stroke="#da1e79" stroke-width="0" stroke-opacity="1"></use></g></g><g><use xlink:href="#g1Wh2N5iG" opacity="1" fill="#59aeff" fill-opacity="1"></use><g><use xlink:href="#g1Wh2N5iG" opacity="1" fill-opacity="0" stroke="#54a0c3" stroke-width="0" stroke-opacity="1"></use></g></g><g><use xlink:href="#ddeIMGuJW" opacity="1" fill="#ffffff" fill-opacity="1"></use><g><use xlink:href="#ddeIMGuJW" opacity="1" fill-opacity="0" stroke="#c8b4d0" stroke-width="0" stroke-opacity="1"></use></g></g><g><use xlink:href="#eezorYJgq" opacity="1" fill="#ffffff" fill-opacity="1"></use><g><use xlink:href="#eezorYJgq" opacity="1" fill-opacity="0" stroke="#000000" stroke-width="0" stroke-opacity="1"></use></g></g><g><use xlink:href="#c1BUm9SFpj" opacity="1" fill="#ffffff" fill-opacity="1"></use><g><use xlink:href="#c1BUm9SFpj" opacity="1" fill-opacity="0" stroke="#000000" stroke-width="0" stroke-opacity="1"></use></g></g></g></svg>